HIERARCHY
ROOT Hips
{
	OFFSET 0.000000 0.000000 0.000000
	CHANNELS 6 Xposition Yposition Zposition Zrotation Yrotation Xrotation 
	JOINT LeftUpLeg_virtual
	{
		OFFSET 0.000000 0.000000 0.000000
		CHANNELS 3 Zrotation Yrotation Xrotation
		JOINT LeftUpLeg
		{
			OFFSET 10.205400 -3.823500 0.155100
			CHANNELS 3 Zrotation Yrotation Xrotation
			JOINT LeftLeg
			{
				OFFSET 0.708757 -12.982077 0.567790
				CHANNELS 3 Zrotation Yrotation Xrotation
				JOINT LeftFoot
				{
					OFFSET -0.708756 -10.717838 -2.184338
					CHANNELS 3 Zrotation Yrotation Xrotation
					JOINT LeftToeBase
					{
						OFFSET 0.108149 -7.191104 7.560241
						CHANNELS 3 Zrotation Yrotation Xrotation
						End Site
						{
							OFFSET 0.000000 0.000000 0.000000
						}
					}
				}
			}
		}
	}
	JOINT RightUpLeg_virtual
	{
		OFFSET 0.000000 0.000000 0.000000
		CHANNELS 3 Zrotation Yrotation Xrotation
		JOINT RightUpLeg
		{
			OFFSET -10.205400 -3.823500 0.005500
			CHANNELS 3 Zrotation Yrotation Xrotation
			JOINT RightLeg
			{
				OFFSET -0.708756 -12.982134 0.610632
				CHANNELS 3 Zrotation Yrotation Xrotation
				JOINT RightFoot
				{
					OFFSET 0.708754 -10.717769 -1.945823
					CHANNELS 3 Zrotation Yrotation Xrotation
					JOINT RightToeBase
					{
						OFFSET -0.108140 -7.191069 7.372968
						CHANNELS 3 Zrotation Yrotation Xrotation
						End Site
						{
							OFFSET 0.000000 0.000000 0.000000
						}
					}
				}
			}
		}
	}
	JOINT Spine_virtual
	{
		OFFSET 0.000000 0.000000 0.000000
		CHANNELS 3 Zrotation Yrotation Xrotation
		JOINT Spine
		{
			OFFSET 0.000000 6.876099 0.125700
			CHANNELS 3 Zrotation Yrotation Xrotation
			JOINT Spine1
			{
				OFFSET 0.000000 8.022060 0.146608
				CHANNELS 3 Zrotation Yrotation Xrotation
				JOINT Spine2
				{
					OFFSET 0.000000 9.168068 0.167552
					CHANNELS 3 Zrotation Yrotation Xrotation
					JOINT Neck_virtual
					{
						OFFSET 0.000000 0.000000 0.000000
						CHANNELS 3 Zrotation Yrotation Xrotation
						JOINT Neck
						{
							OFFSET 0.000000 10.314075 0.188496
							CHANNELS 3 Zrotation Yrotation Xrotation
							JOINT Head
							{
								OFFSET 0.000000 7.643700 -2.377400
								CHANNELS 3 Zrotation Yrotation Xrotation
								End Site
								{
									OFFSET 0.000000 0.000000 0.000000
								}
							}
						}
					}
					JOINT LeftShoulder_virtual
					{
						OFFSET 0.000000 0.000000 0.000000
						CHANNELS 3 Zrotation Yrotation Xrotation
						JOINT LeftShoulder
						{
							OFFSET 4.392200 8.824978 0.174984
							CHANNELS 3 Zrotation Yrotation Xrotation
							JOINT LeftArm
							{
								OFFSET 8.771219 -2.981674 -0.026999
								CHANNELS 3 Zrotation Yrotation Xrotation
								JOINT LeftForeArm
								{
									OFFSET 8.512804 0.000000 -0.000000
									CHANNELS 3 Zrotation Yrotation Xrotation
									JOINT LeftHand
									{
										OFFSET 18.484802 0.000000 -0.000000
										CHANNELS 3 Zrotation Yrotation Xrotation
										End Site
										{
											OFFSET 0.000000 0.000000 0.000000
										}
									}
								}
							}
						}
					}
					JOINT RightShoulder_virtual
					{
						OFFSET 0.000000 0.000000 0.000000
						CHANNELS 3 Zrotation Yrotation Xrotation
						JOINT RightShoulder
						{
							OFFSET -4.392200 8.824993 0.141379
							CHANNELS 3 Zrotation Yrotation Xrotation
							JOINT RightArm
							{
								OFFSET -8.771282 -2.981682 -0.094208
								CHANNELS 3 Zrotation Yrotation Xrotation
								JOINT RightForeArm
								{
									OFFSET -8.494598 0.000000 0.000000
									CHANNELS 3 Zrotation Yrotation Xrotation
									JOINT RightHand
									{
										OFFSET -18.483803 0.000000 0.000001
										CHANNELS 3 Zrotation Yrotation Xrotation
										End Site
										{
											OFFSET 0.000000 0.000000 0.000000
										}
									}
								}
							}
						}
					}
				}
			}
		}
	}
}
MOTION
Frames: 10
Frame Time: 0.033333
5.223975 34.845337 28.613016 -0.180568 -36.409276 0.675389 -6.171941 1.462440 14.479989 -14.410226 2.248183 -2.007109 12.569162 6.002729 18.526734 -2.131322 -0.968522 -4.663414 0.000000 0.000000 0.000000 -0.838140 3.879999 10.997233 8.088875 -0.184475 -42.188880 -5.293596 2.039564 11.330539 4.491955 8.780850 24.884182 0.000000 0.000000 0.000000 -1.928582 4.046869 1.521772 2.093279 -2.559424 -10.287380 -0.033084 -5.473364 5.168758 -0.003752 -0.020334 0.054295 -0.181229 -3.968681 7.856723 6.243668 -1.615659 15.994619 0.000000 0.000000 0.000000 1.125862 -3.660544 4.096155 -8.610316 -4.741808 -2.860563 -40.435171 -10.495642 46.410159 -135.477772 -86.939122 157.204658 0.000000 0.000000 0.000000 -2.077272 -2.474786 3.727349 11.004244 -7.020409 -17.197358 10.853596 5.388943 -27.764994 -0.616365 34.764222 -0.838606 0.000000 0.000000 0.000000 
4.218794 34.815266 29.691717 -0.249872 -36.599350 0.483421 -6.226168 1.863072 14.552169 -13.133061 2.622052 0.195199 12.054208 5.750215 19.010399 -2.173386 -1.817893 -3.855381 0.000000 0.000000 0.000000 -0.355977 4.278932 11.258649 7.676524 0.719368 -40.659297 -4.846206 3.615899 12.350153 4.935633 9.210861 24.788829 0.000000 0.000000 0.000000 -1.932980 4.278583 1.756604 1.965169 -2.976869 -10.566756 0.042299 -5.505831 5.217106 -0.010397 -0.033388 0.001389 -0.101795 -4.211464 7.893112 6.769930 -1.666129 16.423805 0.000000 0.000000 0.000000 1.279163 -3.626783 4.259937 -8.735768 -5.185463 -2.887869 -39.580533 -9.202997 46.957913 -129.930661 -87.014561 151.736983 0.000000 0.000000 0.000000 -2.034129 -2.513787 3.728874 10.965790 -7.125114 -17.057738 10.947560 4.446921 -27.124493 -0.438362 35.296048 -0.846062 0.000000 0.000000 0.000000 
3.182438 34.828094 30.705427 -0.320671 -36.968481 0.455870 -6.069540 1.855286 14.491074 -11.944358 3.486442 1.889712 11.739215 5.497149 19.616286 -2.914741 -2.900842 -1.993769 0.000000 0.000000 0.000000 -0.259923 4.522570 11.415101 7.445568 1.971048 -38.981058 -4.082454 4.312968 13.980507 4.830577 8.835923 24.181252 0.000000 0.000000 0.000000 -1.900537 4.458944 1.745823 1.844935 -3.325946 -10.875046 0.116340 -5.504221 5.311690 -0.007452 -0.019710 -0.054494 0.008940 -3.974244 8.034918 7.303543 -1.720329 16.760506 0.000000 0.000000 0.000000 1.357880 -3.715513 4.368724 -8.852832 -5.440425 -3.074666 -38.664792 -7.643026 47.722976 -122.569985 -87.029150 144.435743 0.000000 0.000000 0.000000 -1.985028 -2.524440 3.871946 10.879267 -7.262620 -17.251719 11.102858 3.247264 -26.408008 -0.140921 35.791161 -0.748347 0.000000 0.000000 0.000000 
2.154009 34.854702 31.698643 -0.126617 -37.157404 0.240200 -5.844890 1.607223 14.417407 -10.947367 4.389198 2.603689 11.420935 5.183473 21.137016 -3.995988 -3.884551 1.727201 0.000000 0.000000 0.000000 -0.680057 4.465319 11.669434 7.545867 3.342715 -37.287307 -2.959393 4.288420 15.948217 4.236006 8.048264 23.171784 0.000000 0.000000 0.000000 -1.960794 4.377470 1.739967 1.664375 -3.662854 -11.183577 0.165303 -5.449279 5.416337 -0.007845 -0.030549 0.027201 0.123908 -3.870723 8.150801 7.862874 -1.764625 17.047474 0.000000 0.000000 0.000000 1.460816 -3.642452 4.475475 -8.903680 -5.864603 -2.968804 -37.684018 -6.052088 48.344591 -115.718609 -87.160754 137.594926 0.000000 0.000000 0.000000 -1.917640 -2.506269 3.959710 10.657618 -7.400542 -17.500041 11.244664 2.016655 -25.696606 -0.058546 36.313363 -0.852977 0.000000 0.000000 0.000000 
1.164076 34.887791 32.641926 -0.044479 -37.302764 0.050170 -5.207974 1.687376 13.959883 -10.013387 5.059089 2.552877 11.088141 5.111060 23.626149 -5.200962 -4.434276 7.094184 0.000000 0.000000 0.000000 -1.083419 3.950613 11.972861 7.762798 4.484071 -35.611527 -2.335934 1.856605 17.784414 3.235986 7.108063 21.291878 0.000000 0.000000 0.000000 -1.925480 4.239673 1.732033 1.536673 -3.897359 -11.464241 0.223570 -5.363570 5.622085 -0.019799 -0.016884 0.006649 0.204114 -3.925839 8.382631 8.400493 -1.736303 17.347738 0.000000 0.000000 0.000000 1.492635 -3.592208 4.650116 -9.032133 -6.258816 -2.847069 -36.815427 -4.220525 48.788752 -108.035431 -87.287687 129.858657 0.000000 0.000000 0.000000 -1.817697 -2.404162 4.115750 10.383805 -7.521329 -17.519596 11.314808 0.872333 -25.519108 0.151150 36.830415 -0.787430 0.000000 0.000000 0.000000 
0.259130 34.901638 33.547005 -0.232462 -37.170333 0.209739 -4.920733 1.552780 13.754122 -8.783086 5.714783 1.305094 10.941533 5.258115 26.897947 -5.688325 -4.734104 12.384998 0.000000 0.000000 0.000000 -1.109670 3.564788 12.167945 7.833378 5.481456 -34.090430 -1.961285 -0.108311 19.772122 2.456640 6.416636 18.863808 0.000000 0.000000 0.000000 -1.759183 4.117735 1.572228 1.486899 -4.070940 -11.724127 0.324702 -5.357300 5.721106 -0.029678 -0.048357 0.049672 0.253453 -3.774021 8.588554 8.875215 -1.835804 17.444011 0.000000 0.000000 0.000000 1.490860 -3.536064 4.851376 -9.115692 -6.628973 -2.842751 -36.090453 -2.212510 48.987459 -100.222685 -87.362033 121.953437 0.000000 0.000000 0.000000 -1.803924 -2.370025 4.350155 10.070448 -7.709147 -17.656435 11.540535 0.066135 -25.276623 0.136458 37.241678 -0.830503 0.000000 0.000000 0.000000 
-0.555212 34.909000 34.413399 -0.268958 -37.091889 0.270731 -5.013141 1.217508 13.865173 -7.560520 6.436247 -1.106576 10.865590 5.079356 32.015754 -5.733693 -5.027517 15.533180 0.000000 0.000000 0.000000 -1.097778 3.337921 12.327677 7.947880 6.226637 -32.450116 -1.492181 -0.686575 21.590867 1.571186 5.644025 15.912029 0.000000 0.000000 0.000000 -1.665403 3.874308 1.379161 1.372594 -4.120887 -11.977945 0.406035 -5.312083 5.964323 -0.015209 -0.040727 -0.032890 0.274740 -3.727199 8.797770 9.264396 -2.048521 17.532983 0.000000 0.000000 0.000000 1.521267 -3.440950 5.046379 -9.194556 -6.913429 -2.904011 -35.654373 0.015353 49.028573 -92.414556 -87.418888 113.979595 0.000000 0.000000 0.000000 -1.777760 -2.276056 4.491388 9.751294 -7.779098 -17.461189 11.659010 -0.393309 -25.016084 -0.064683 37.546335 -0.953265 0.000000 0.000000 0.000000 
-1.295913 34.925014 35.225548 -0.309307 -37.307723 0.195775 -4.981110 0.950462 13.897213 -6.608144 7.164146 -5.010138 10.632500 4.336622 38.702782 -5.339951 -5.443673 17.394629 0.000000 0.000000 0.000000 -0.890605 3.205712 12.414437 8.195896 6.644817 -30.569085 -0.928151 -0.375990 22.988810 0.624798 4.699545 13.098215 0.000000 0.000000 0.000000 -1.523708 3.880263 1.267587 1.203158 -4.120464 -12.066666 0.474977 -5.313290 6.099190 -0.027387 -0.068839 -0.013650 0.299024 -3.834405 8.952508 9.659429 -2.303150 17.555196 0.000000 0.000000 0.000000 1.555498 -3.349786 5.235132 -9.290720 -7.130818 -2.948595 -35.516437 2.321201 48.987981 -84.839030 -87.482852 106.206600 0.000000 0.000000 0.000000 -1.754985 -2.203309 4.656978 9.516653 -7.813868 -17.360705 11.861080 -0.417314 -24.755391 -0.300717 37.715997 -0.991093 0.000000 0.000000 0.000000 
-1.992766 34.965820 36.017048 -0.242844 -37.881342 0.174650 -4.525773 0.563208 13.794514 -6.434005 7.551310 -10.417906 10.311544 3.544474 45.548595 -5.089669 -5.746876 17.968384 0.000000 0.000000 0.000000 -0.570807 2.816542 12.305188 8.365059 6.791384 -28.526186 -0.470036 0.260246 24.011600 0.155439 3.933861 10.490585 0.000000 0.000000 0.000000 -1.415759 3.713628 1.018559 0.954617 -3.902722 -12.100930 0.525501 -5.227162 6.240203 -0.013608 -0.016951 0.014464 0.345111 -3.730509 9.082095 10.021512 -2.407682 17.477320 0.000000 0.000000 0.000000 1.638907 -3.326132 5.403513 -9.386233 -7.367469 -2.970803 -35.496575 4.687040 48.825375 -79.685351 -87.478966 100.804508 0.000000 0.000000 0.000000 -1.672837 -2.143827 4.787616 9.245758 -7.845475 -17.050444 12.018328 -0.145657 -24.521788 -0.688028 37.783176 -1.083925 0.000000 0.000000 0.000000 
-2.667329 35.022102 36.797432 0.010770 -38.592276 0.097543 -3.678067 -0.013819 13.580632 -6.844202 6.740463 -16.772505 9.648195 3.359750 50.793818 -5.075000 -4.081394 16.666751 0.000000 0.000000 0.000000 -0.401760 2.143026 12.080169 8.438764 6.612103 -26.308229 -0.065491 1.225292 24.429937 -0.010034 3.328719 8.099173 0.000000 0.000000 0.000000 -1.362875 3.341931 0.738202 0.598560 -3.629581 -12.017970 0.527272 -5.184986 6.365315 -0.017402 -0.038783 0.024568 0.447658 -3.603934 9.212435 10.351746 -2.660099 17.351450 0.000000 0.000000 0.000000 1.754127 -3.261362 5.557028 -9.504820 -7.485401 -2.992453 -35.650415 6.868696 48.700939 -76.380202 -87.442124 97.216603 0.000000 0.000000 0.000000 -1.575104 -2.063596 4.968117 8.883632 -7.791885 -16.895100 12.240520 0.377161 -24.281715 -1.095008 37.881254 -1.100194 0.000000 0.000000 0.000000 
